<svg width="77" height="95" viewBox="0 0 77 95" fill="none" xmlns="http://www.w3.org/2000/svg">
<path d="M65.816 10.336C58.4187 3.44533 47.7787 0 33.896 0H0V20.872H73.5346C71.705 16.8916 69.1322 13.3796 65.816 10.336Z" fill="#2D8ECD"/>
<path d="M76.4347 30.872H53.4532C53.8346 31.88 54.1048 32.888 54.264 33.896C54.6693 35.72 54.872 37.1893 54.872 38.304C54.872 39.7227 54.568 41.3947 53.96 43.32C53.4533 45.2453 52.5413 47.12 51.224 48.944C50.008 50.6667 48.2853 52.136 46.056 53.352C43.8267 54.4667 41.04 55.024 37.696 55.024H22.04V30.872H0V94.164H22.04V76.456H37.848C45.144 76.456 51.2747 75.3413 56.24 73.112C61.3067 70.7813 65.3093 67.7413 68.248 63.992C71.288 60.2427 73.4667 56.088 74.784 51.528C76.2027 46.8667 76.912 42.256 76.912 37.696C76.912 35.3211 76.7529 33.0464 76.4347 30.872Z" fill="#2D8ECD"/>
</svg>
