<svg xmlns="http://www.w3.org/2000/svg" width="780.741" height="294.647" viewBox="0 0 780.741 294.647">
  <g id="Group_93" data-name="Group 93" transform="translate(-314.563 -162.203)">
    <g id="Group_91" data-name="Group 91">
      <path id="Path_10" data-name="Path 10" d="M314.563,294.389h45.019a109.263,109.263,0,0,1,33.031,4.649,66.274,66.274,0,0,1,25.2,14.313,62.914,62.914,0,0,1,16.149,24.589q5.625,14.928,5.627,35.477t-5.627,35.722a66.179,66.179,0,0,1-15.9,25.079,65.338,65.338,0,0,1-24.59,14.8,98.193,98.193,0,0,1-31.929,4.893H314.563ZM357.38,424.8a60.145,60.145,0,0,0,18.6-2.691,34.285,34.285,0,0,0,14.191-8.686,40.745,40.745,0,0,0,9.175-15.781q3.3-9.783,3.3-24.223,0-14.187-3.3-23.855a38.637,38.637,0,0,0-9.175-15.414,33.44,33.44,0,0,0-14.191-8.2,65.932,65.932,0,0,0-18.6-2.446h-6.851V424.8Z"/>
      <path id="Path_11" data-name="Path 11" d="M469.927,294.389h99.825v30.339H505.894V356.78H560.21v30.1H505.894v36.7h66.3v30.339H469.927Z"/>
      <path id="Path_12" data-name="Path 12" d="M614.28,409.139a77.505,77.505,0,0,0,18.962,11.989,49.767,49.767,0,0,0,20.43,4.649q11.25,0,16.76-4.159a13.362,13.362,0,0,0,5.505-11.255,12.307,12.307,0,0,0-1.59-6.362,15.246,15.246,0,0,0-4.649-4.771,44.123,44.123,0,0,0-7.341-3.915q-4.282-1.834-9.419-4.037l-20.8-8.808a61.614,61.614,0,0,1-11.867-6.361A52.242,52.242,0,0,1,610,366.934,41.363,41.363,0,0,1,602.78,354.7a43.5,43.5,0,0,1-2.691-15.781,42.2,42.2,0,0,1,4.16-18.473,45.86,45.86,0,0,1,11.744-15.169,56.056,56.056,0,0,1,17.983-10.154,68.311,68.311,0,0,1,22.877-3.67,74.2,74.2,0,0,1,27.525,5.382,69.725,69.725,0,0,1,23.855,15.66l-18.35,22.754a69.636,69.636,0,0,0-15.659-9.42,44.271,44.271,0,0,0-17.371-3.3q-9.3,0-14.8,3.792a12.2,12.2,0,0,0-5.505,10.643,10.458,10.458,0,0,0,1.835,6.24,17.9,17.9,0,0,0,5.138,4.649,52,52,0,0,0,7.707,3.914q4.4,1.834,9.542,4.037l20.552,8.319q14.681,5.873,23.122,16.148t8.441,27.159a45.264,45.264,0,0,1-15.781,34.62,58.468,58.468,0,0,1-18.962,10.766,75.07,75.07,0,0,1-25.446,4.037,89.373,89.373,0,0,1-31.2-5.749,81.341,81.341,0,0,1-27.77-17.25Z"/>
      <path id="Path_13" data-name="Path 13" d="M740.041,294.389h35.966V453.914H740.041Z"/>
      <path id="Path_14" data-name="Path 14" d="M806.1,375.13q0-19.818,6.239-35.355a78.494,78.494,0,0,1,16.882-26.3,71.484,71.484,0,0,1,24.956-16.393,82.529,82.529,0,0,1,30.462-5.627q16.883,0,29.238,6.361a76.9,76.9,0,0,1,20.185,14.436l-19.818,22.265a49.423,49.423,0,0,0-12.356-8.808q-6.486-3.177-16.76-3.181a40.2,40.2,0,0,0-17,3.548,38.491,38.491,0,0,0-13.335,10.154,46.348,46.348,0,0,0-8.686,16.148,70.318,70.318,0,0,0-3.058,21.531q0,24.715,11.132,38.291t33.642,13.579a37.247,37.247,0,0,0,9.543-1.223,19.378,19.378,0,0,0,7.584-3.67v-27.4H878.523V364.12h58.231v73.4q-8.566,8.074-22.509,13.7a81.706,81.706,0,0,1-30.828,5.627,85.614,85.614,0,0,1-30.217-5.26,69.656,69.656,0,0,1-24.59-15.537,71.724,71.724,0,0,1-16.515-25.568Q806.1,395.2,806.1,375.13Z"/>
      <path id="Path_15" data-name="Path 15" d="M969.781,294.389h36.946l41.593,79.273,15.659,35.233h.979q-1.227-12.719-2.813-28.382a294.732,294.732,0,0,1-1.591-29.85V294.389h34.254V453.914h-36.946L1016.269,374.4l-15.66-34.743h-.978q1.221,13.212,2.813,28.382a281.812,281.812,0,0,1,1.591,29.36v56.519H969.781Z"/>
    </g>
    <g id="Group_92" data-name="Group 92">
      <path id="Path_16" data-name="Path 16" d="M942.874,286.74l-.067.26H991.63l-.067-.26Z" fill="none"/>
      <path id="Path_17" data-name="Path 17" d="M980.553,243.923q-3.429-11.985-6.606-25.446t-6.361-25.935h-.98q-2.936,12.724-5.994,26.058t-6.483,25.323l-3.915,14.68h34.01Z" fill="none"/>
      <path id="Path_18" data-name="Path 18" d="M399.953,216.52q0-12.479-7.463-17.617t-21.9-5.138H350.529v48.2h20.063Q399.953,241.965,399.953,216.52Z" fill="none"/>
      <path id="Path_19" data-name="Path 19" d="M350.529,270.592h22.265a87.758,87.758,0,0,0,23.978-3.181,57.82,57.82,0,0,0,19.818-9.786,47,47,0,0,0,13.579-16.883q5.013-10.276,5.016-24.222,0-14.435-4.893-24.345a41.848,41.848,0,0,0-13.334-15.9,54.605,54.605,0,0,0-19.819-8.563,110.342,110.342,0,0,0-24.345-2.569H314.563V287h35.966Zm0-76.827h20.063q14.434,0,21.9,5.138t7.463,17.617q0,25.449-29.361,25.445H350.529Z"/>
      <path id="Path_20" data-name="Path 20" d="M591.037,250.773V165.139H556.294v89.3q0,23.211-7.172,32.556H586.57Q591.02,271.9,591.037,250.773Z"/>
      <path id="Path_21" data-name="Path 21" d="M500.509,254.444v-89.3H464.3v85.634q0,21.15,4.568,36.227h38.576Q500.509,277.649,500.509,254.444Z"/>
      <path id="Path_22" data-name="Path 22" d="M736.86,278.177q0-16.883-8.441-27.159T705.3,234.87l-20.552-8.319q-5.139-2.2-9.542-4.037A52,52,0,0,1,667.5,218.6a17.9,17.9,0,0,1-5.139-4.649,10.458,10.458,0,0,1-1.835-6.24,12.2,12.2,0,0,1,5.505-10.643q5.506-3.789,14.8-3.792a44.279,44.279,0,0,1,17.372,3.3A69.632,69.632,0,0,1,713.861,206l18.351-22.754a69.729,69.729,0,0,0-23.856-15.66,74.2,74.2,0,0,0-27.525-5.382,68.312,68.312,0,0,0-22.877,3.67,56.077,56.077,0,0,0-17.983,10.154A45.874,45.874,0,0,0,628.227,191.2a42.2,42.2,0,0,0-4.16,18.473,43.5,43.5,0,0,0,2.692,15.781,41.363,41.363,0,0,0,7.218,12.234,52.185,52.185,0,0,0,10.276,9.175,61.576,61.576,0,0,0,11.866,6.361l20.8,8.808q5.137,2.2,9.419,4.037a44.072,44.072,0,0,1,7.34,3.915,15.235,15.235,0,0,1,4.649,4.771,12.3,12.3,0,0,1,1.591,6.362,14.444,14.444,0,0,1-1.18,5.887h37.288A46.868,46.868,0,0,0,736.86,278.177Z"/>
      <path id="Path_23" data-name="Path 23" d="M802.432,281.847l18.6-24.467L838.153,287h38.782l-34.621-58.247,48.2-63.614H850.877l-47.466,65.327h-.979V165.139H766.466V287h35.966Z"/>
      <path id="Path_24" data-name="Path 24" d="M1027.734,287,989.6,165.139H946.3L908.171,287m45.958-43.077q3.423-11.985,6.483-25.323t5.994-26.058h.98q3.176,12.478,6.361,25.935t6.606,25.446l3.671,14.68h-34.01Z"/>
      <rect id="Rectangle_79" data-name="Rectangle 79" width="35.967" height="121.861" transform="translate(1059.337 165.139)"/>
    </g>
  </g>
</svg>
