<?xml version="1.0" encoding="utf-8"?>
<!-- Generator: Adobe Illustrator 18.0.0, SVG Export Plug-In . SVG Version: 6.00 Build 0)  -->
<!DOCTYPE svg PUBLIC "-//W3C//DTD SVG 1.1//EN" "http://www.w3.org/Graphics/SVG/1.1/DTD/svg11.dtd">
<svg version="1.1" id="Layer_1" xmlns="http://www.w3.org/2000/svg" xmlns:xlink="http://www.w3.org/1999/xlink" x="0px" y="0px"
	 viewBox="0 0 16.1 27.4" enable-background="new 0 0 16.1 27.4" xml:space="preserve">
<path fill="#305181" d="M16.1,0L16.1,0h-5H5H0h0v5h0v6.7c0,3.9,2.6,7.4,6.4,8.2c1.7,0.3,3.2,0.1,4.6-0.4v5.3l5,2.6V12c0,0,0,0,0,0V5
	h0V0z M11.1,8.7c0,1.1,0,2.1,0,3.2c0,1.3-0.8,2.6-2.1,3C6.9,15.6,5,14,5,12V5h6.1V8.7z"/>
</svg>
